<mxfile host="app.diagrams.net" modified="2021-10-17T14:30:24.960Z" agent="5.0 (Windows NT 10.0; Win64; x64) AppleWebKit/537.36 (KHTML, like Gecko) Chrome/94.0.4606.81 Safari/537.36" etag="Uv9ghw1hFAVmfh3fSrr8" version="15.5.2" type="github">
  <diagram id="kgpKYQtTHZ0yAKxKKP6v" name="Page-1">
    <mxGraphModel dx="1422" dy="737" grid="1" gridSize="10" guides="1" tooltips="1" connect="1" arrows="1" fold="1" page="1" pageScale="1" pageWidth="850" pageHeight="1100" background="#FFFFFF" math="0" shadow="1">
      <root>
        <mxCell id="0" />
        <mxCell id="1" parent="0" />
        <mxCell id="98jdAXWO_OSkOp83e07M-111" value="" style="endArrow=none;dashed=1;html=1;rounded=0;exitX=0;exitY=1;exitDx=0;exitDy=0;entryX=1;entryY=0.078;entryDx=0;entryDy=0;entryPerimeter=0;" edge="1" parent="1" source="98jdAXWO_OSkOp83e07M-52" target="98jdAXWO_OSkOp83e07M-65">
          <mxGeometry width="50" height="50" relative="1" as="geometry">
            <mxPoint x="420" y="210" as="sourcePoint" />
            <mxPoint x="710" y="110" as="targetPoint" />
          </mxGeometry>
        </mxCell>
        <mxCell id="98jdAXWO_OSkOp83e07M-112" value="" style="endArrow=none;dashed=1;html=1;rounded=0;exitX=0;exitY=1;exitDx=0;exitDy=0;entryX=1;entryY=0.078;entryDx=0;entryDy=0;entryPerimeter=0;" edge="1" parent="1">
          <mxGeometry width="50" height="50" relative="1" as="geometry">
            <mxPoint x="200" y="159.44000000000005" as="sourcePoint" />
            <mxPoint x="800" y="160.00000000000006" as="targetPoint" />
          </mxGeometry>
        </mxCell>
        <mxCell id="98jdAXWO_OSkOp83e07M-113" value="" style="endArrow=none;dashed=1;html=1;rounded=0;exitX=0;exitY=1;exitDx=0;exitDy=0;entryX=1;entryY=0.078;entryDx=0;entryDy=0;entryPerimeter=0;" edge="1" parent="1">
          <mxGeometry width="50" height="50" relative="1" as="geometry">
            <mxPoint x="200" y="200.00000000000006" as="sourcePoint" />
            <mxPoint x="800" y="200.56000000000006" as="targetPoint" />
          </mxGeometry>
        </mxCell>
        <mxCell id="98jdAXWO_OSkOp83e07M-114" value="" style="endArrow=none;dashed=1;html=1;rounded=0;exitX=0;exitY=1;exitDx=0;exitDy=0;entryX=1;entryY=0.078;entryDx=0;entryDy=0;entryPerimeter=0;" edge="1" parent="1">
          <mxGeometry width="50" height="50" relative="1" as="geometry">
            <mxPoint x="200" y="239.44000000000005" as="sourcePoint" />
            <mxPoint x="800" y="240.00000000000006" as="targetPoint" />
          </mxGeometry>
        </mxCell>
        <mxCell id="98jdAXWO_OSkOp83e07M-115" value="" style="endArrow=none;dashed=1;html=1;rounded=0;exitX=0;exitY=1;exitDx=0;exitDy=0;entryX=1;entryY=0.078;entryDx=0;entryDy=0;entryPerimeter=0;" edge="1" parent="1">
          <mxGeometry width="50" height="50" relative="1" as="geometry">
            <mxPoint x="200" y="280.00000000000006" as="sourcePoint" />
            <mxPoint x="800" y="280.56000000000006" as="targetPoint" />
          </mxGeometry>
        </mxCell>
        <mxCell id="98jdAXWO_OSkOp83e07M-116" value="" style="endArrow=none;dashed=1;html=1;rounded=0;exitX=0;exitY=1;exitDx=0;exitDy=0;entryX=1;entryY=0.078;entryDx=0;entryDy=0;entryPerimeter=0;" edge="1" parent="1">
          <mxGeometry width="50" height="50" relative="1" as="geometry">
            <mxPoint x="200" y="319.44000000000005" as="sourcePoint" />
            <mxPoint x="800" y="320.00000000000006" as="targetPoint" />
          </mxGeometry>
        </mxCell>
        <mxCell id="98jdAXWO_OSkOp83e07M-117" value="" style="endArrow=none;dashed=1;html=1;rounded=0;exitX=0;exitY=1;exitDx=0;exitDy=0;entryX=1;entryY=0.078;entryDx=0;entryDy=0;entryPerimeter=0;" edge="1" parent="1">
          <mxGeometry width="50" height="50" relative="1" as="geometry">
            <mxPoint x="200" y="360" as="sourcePoint" />
            <mxPoint x="800" y="360.56000000000006" as="targetPoint" />
          </mxGeometry>
        </mxCell>
        <mxCell id="98jdAXWO_OSkOp83e07M-118" value="" style="endArrow=none;dashed=1;html=1;rounded=0;exitX=0;exitY=1;exitDx=0;exitDy=0;entryX=1;entryY=0.078;entryDx=0;entryDy=0;entryPerimeter=0;" edge="1" parent="1">
          <mxGeometry width="50" height="50" relative="1" as="geometry">
            <mxPoint x="200" y="399.44000000000005" as="sourcePoint" />
            <mxPoint x="800" y="400" as="targetPoint" />
          </mxGeometry>
        </mxCell>
        <mxCell id="98jdAXWO_OSkOp83e07M-119" value="" style="endArrow=none;dashed=1;html=1;rounded=0;exitX=0;exitY=1;exitDx=0;exitDy=0;entryX=1;entryY=0.078;entryDx=0;entryDy=0;entryPerimeter=0;" edge="1" parent="1">
          <mxGeometry width="50" height="50" relative="1" as="geometry">
            <mxPoint x="200" y="440.00000000000006" as="sourcePoint" />
            <mxPoint x="800" y="440.56000000000006" as="targetPoint" />
          </mxGeometry>
        </mxCell>
        <mxCell id="98jdAXWO_OSkOp83e07M-120" value="" style="endArrow=none;dashed=1;html=1;rounded=0;exitX=0;exitY=1;exitDx=0;exitDy=0;entryX=1;entryY=0.078;entryDx=0;entryDy=0;entryPerimeter=0;" edge="1" parent="1">
          <mxGeometry width="50" height="50" relative="1" as="geometry">
            <mxPoint x="200" y="479.44000000000005" as="sourcePoint" />
            <mxPoint x="800" y="480.00000000000006" as="targetPoint" />
          </mxGeometry>
        </mxCell>
        <mxCell id="98jdAXWO_OSkOp83e07M-121" value="" style="endArrow=none;dashed=1;html=1;rounded=0;exitX=0;exitY=1;exitDx=0;exitDy=0;entryX=1;entryY=0.078;entryDx=0;entryDy=0;entryPerimeter=0;" edge="1" parent="1">
          <mxGeometry width="50" height="50" relative="1" as="geometry">
            <mxPoint x="200" y="520" as="sourcePoint" />
            <mxPoint x="800" y="520.5600000000001" as="targetPoint" />
          </mxGeometry>
        </mxCell>
        <mxCell id="98jdAXWO_OSkOp83e07M-122" value="" style="endArrow=none;dashed=1;html=1;rounded=0;exitX=0;exitY=1;exitDx=0;exitDy=0;entryX=1;entryY=0.078;entryDx=0;entryDy=0;entryPerimeter=0;" edge="1" parent="1">
          <mxGeometry width="50" height="50" relative="1" as="geometry">
            <mxPoint x="200" y="559.44" as="sourcePoint" />
            <mxPoint x="800" y="560" as="targetPoint" />
          </mxGeometry>
        </mxCell>
        <mxCell id="98jdAXWO_OSkOp83e07M-96" value="" style="endArrow=none;dashed=1;html=1;rounded=0;exitX=0.065;exitY=1;exitDx=0;exitDy=0;entryX=0;entryY=1;entryDx=0;entryDy=0;exitPerimeter=0;" edge="1" parent="1">
          <mxGeometry width="50" height="50" relative="1" as="geometry">
            <mxPoint x="239" y="600" as="sourcePoint" />
            <mxPoint x="240" y="80" as="targetPoint" />
          </mxGeometry>
        </mxCell>
        <mxCell id="98jdAXWO_OSkOp83e07M-65" value="" style="rounded=0;whiteSpace=wrap;html=1;fillColor=none;" vertex="1" parent="1">
          <mxGeometry x="200" y="80" width="600" height="520" as="geometry" />
        </mxCell>
        <mxCell id="98jdAXWO_OSkOp83e07M-72" value="" style="endArrow=none;dashed=1;html=1;rounded=0;exitX=0.065;exitY=1;exitDx=0;exitDy=0;entryX=0;entryY=1;entryDx=0;entryDy=0;exitPerimeter=0;" edge="1" parent="1">
          <mxGeometry width="50" height="50" relative="1" as="geometry">
            <mxPoint x="440" y="600" as="sourcePoint" />
            <mxPoint x="441" y="80" as="targetPoint" />
          </mxGeometry>
        </mxCell>
        <mxCell id="98jdAXWO_OSkOp83e07M-73" value="" style="endArrow=none;dashed=1;html=1;rounded=0;exitX=0.065;exitY=1;exitDx=0;exitDy=0;entryX=0;entryY=1;entryDx=0;entryDy=0;exitPerimeter=0;" edge="1" parent="1">
          <mxGeometry width="50" height="50" relative="1" as="geometry">
            <mxPoint x="480" y="600" as="sourcePoint" />
            <mxPoint x="481" y="80" as="targetPoint" />
          </mxGeometry>
        </mxCell>
        <mxCell id="98jdAXWO_OSkOp83e07M-74" value="" style="endArrow=none;dashed=1;html=1;rounded=0;exitX=0.065;exitY=1;exitDx=0;exitDy=0;entryX=0;entryY=1;entryDx=0;entryDy=0;exitPerimeter=0;" edge="1" parent="1">
          <mxGeometry width="50" height="50" relative="1" as="geometry">
            <mxPoint x="520" y="600" as="sourcePoint" />
            <mxPoint x="521" y="80" as="targetPoint" />
          </mxGeometry>
        </mxCell>
        <mxCell id="98jdAXWO_OSkOp83e07M-75" value="" style="endArrow=none;dashed=1;html=1;rounded=0;exitX=0.065;exitY=1;exitDx=0;exitDy=0;entryX=0;entryY=1;entryDx=0;entryDy=0;exitPerimeter=0;" edge="1" parent="1">
          <mxGeometry width="50" height="50" relative="1" as="geometry">
            <mxPoint x="560" y="600" as="sourcePoint" />
            <mxPoint x="561" y="80" as="targetPoint" />
          </mxGeometry>
        </mxCell>
        <mxCell id="98jdAXWO_OSkOp83e07M-76" value="" style="endArrow=none;dashed=1;html=1;rounded=0;exitX=0.065;exitY=1;exitDx=0;exitDy=0;entryX=0;entryY=1;entryDx=0;entryDy=0;exitPerimeter=0;" edge="1" parent="1">
          <mxGeometry width="50" height="50" relative="1" as="geometry">
            <mxPoint x="600" y="600" as="sourcePoint" />
            <mxPoint x="601" y="80" as="targetPoint" />
          </mxGeometry>
        </mxCell>
        <mxCell id="98jdAXWO_OSkOp83e07M-77" value="" style="endArrow=none;dashed=1;html=1;rounded=0;exitX=0.065;exitY=1;exitDx=0;exitDy=0;entryX=0;entryY=1;entryDx=0;entryDy=0;exitPerimeter=0;" edge="1" parent="1">
          <mxGeometry width="50" height="50" relative="1" as="geometry">
            <mxPoint x="639.5" y="600" as="sourcePoint" />
            <mxPoint x="640.5" y="80" as="targetPoint" />
          </mxGeometry>
        </mxCell>
        <mxCell id="98jdAXWO_OSkOp83e07M-78" value="" style="endArrow=none;dashed=1;html=1;rounded=0;exitX=0.065;exitY=1;exitDx=0;exitDy=0;entryX=0;entryY=1;entryDx=0;entryDy=0;exitPerimeter=0;" edge="1" parent="1">
          <mxGeometry width="50" height="50" relative="1" as="geometry">
            <mxPoint x="680" y="600" as="sourcePoint" />
            <mxPoint x="681" y="80" as="targetPoint" />
          </mxGeometry>
        </mxCell>
        <mxCell id="98jdAXWO_OSkOp83e07M-79" value="" style="endArrow=none;dashed=1;html=1;rounded=0;exitX=0.065;exitY=1;exitDx=0;exitDy=0;entryX=0;entryY=1;entryDx=0;entryDy=0;exitPerimeter=0;" edge="1" parent="1">
          <mxGeometry width="50" height="50" relative="1" as="geometry">
            <mxPoint x="720" y="600" as="sourcePoint" />
            <mxPoint x="721" y="80" as="targetPoint" />
          </mxGeometry>
        </mxCell>
        <mxCell id="98jdAXWO_OSkOp83e07M-80" value="" style="endArrow=none;dashed=1;html=1;rounded=0;exitX=0.065;exitY=1;exitDx=0;exitDy=0;entryX=0;entryY=1;entryDx=0;entryDy=0;exitPerimeter=0;" edge="1" parent="1">
          <mxGeometry width="50" height="50" relative="1" as="geometry">
            <mxPoint x="760" y="600" as="sourcePoint" />
            <mxPoint x="761" y="80" as="targetPoint" />
          </mxGeometry>
        </mxCell>
        <mxCell id="98jdAXWO_OSkOp83e07M-68" value="" style="endArrow=none;dashed=1;html=1;rounded=0;exitX=0.065;exitY=1;exitDx=0;exitDy=0;entryX=0;entryY=1;entryDx=0;entryDy=0;exitPerimeter=0;" edge="1" parent="1">
          <mxGeometry width="50" height="50" relative="1" as="geometry">
            <mxPoint x="279.5" y="600" as="sourcePoint" />
            <mxPoint x="280.5" y="80" as="targetPoint" />
          </mxGeometry>
        </mxCell>
        <mxCell id="98jdAXWO_OSkOp83e07M-69" value="" style="endArrow=none;dashed=1;html=1;rounded=0;exitX=0.065;exitY=1;exitDx=0;exitDy=0;entryX=0;entryY=1;entryDx=0;entryDy=0;exitPerimeter=0;" edge="1" parent="1">
          <mxGeometry width="50" height="50" relative="1" as="geometry">
            <mxPoint x="320" y="600" as="sourcePoint" />
            <mxPoint x="321" y="80" as="targetPoint" />
          </mxGeometry>
        </mxCell>
        <mxCell id="98jdAXWO_OSkOp83e07M-70" value="" style="endArrow=none;dashed=1;html=1;rounded=0;exitX=0.065;exitY=1;exitDx=0;exitDy=0;entryX=0;entryY=1;entryDx=0;entryDy=0;exitPerimeter=0;" edge="1" parent="1">
          <mxGeometry width="50" height="50" relative="1" as="geometry">
            <mxPoint x="359.5" y="600" as="sourcePoint" />
            <mxPoint x="360.5" y="80" as="targetPoint" />
          </mxGeometry>
        </mxCell>
        <mxCell id="98jdAXWO_OSkOp83e07M-71" value="" style="endArrow=none;dashed=1;html=1;rounded=0;exitX=0.065;exitY=1;exitDx=0;exitDy=0;entryX=0;entryY=1;entryDx=0;entryDy=0;exitPerimeter=0;" edge="1" parent="1">
          <mxGeometry width="50" height="50" relative="1" as="geometry">
            <mxPoint x="400" y="600" as="sourcePoint" />
            <mxPoint x="401" y="80" as="targetPoint" />
          </mxGeometry>
        </mxCell>
        <mxCell id="98jdAXWO_OSkOp83e07M-86" value="" style="endArrow=none;dashed=1;html=1;rounded=0;exitX=0.065;exitY=1;exitDx=0;exitDy=0;entryX=0;entryY=1;entryDx=0;entryDy=0;exitPerimeter=0;" edge="1" parent="1">
          <mxGeometry width="50" height="50" relative="1" as="geometry">
            <mxPoint x="720" y="600" as="sourcePoint" />
            <mxPoint x="721" y="80" as="targetPoint" />
          </mxGeometry>
        </mxCell>
        <mxCell id="98jdAXWO_OSkOp83e07M-87" value="" style="endArrow=none;dashed=1;html=1;rounded=0;exitX=0.065;exitY=1;exitDx=0;exitDy=0;entryX=0;entryY=1;entryDx=0;entryDy=0;exitPerimeter=0;" edge="1" parent="1">
          <mxGeometry width="50" height="50" relative="1" as="geometry">
            <mxPoint x="680" y="600" as="sourcePoint" />
            <mxPoint x="681" y="80" as="targetPoint" />
          </mxGeometry>
        </mxCell>
        <mxCell id="98jdAXWO_OSkOp83e07M-92" value="" style="endArrow=none;dashed=1;html=1;rounded=0;exitX=0.065;exitY=1;exitDx=0;exitDy=0;entryX=0;entryY=1;entryDx=0;entryDy=0;exitPerimeter=0;" edge="1" parent="1">
          <mxGeometry width="50" height="50" relative="1" as="geometry">
            <mxPoint x="480" y="600" as="sourcePoint" />
            <mxPoint x="481" y="80" as="targetPoint" />
          </mxGeometry>
        </mxCell>
        <mxCell id="98jdAXWO_OSkOp83e07M-15" value="" style="rounded=0;whiteSpace=wrap;html=1;" vertex="1" parent="1">
          <mxGeometry width="200" height="80" as="geometry" />
        </mxCell>
        <mxCell id="98jdAXWO_OSkOp83e07M-16" value="1." style="rounded=0;whiteSpace=wrap;html=1;" vertex="1" parent="1">
          <mxGeometry x="200" y="40" width="40" height="40" as="geometry" />
        </mxCell>
        <mxCell id="98jdAXWO_OSkOp83e07M-17" value="2." style="rounded=0;whiteSpace=wrap;html=1;" vertex="1" parent="1">
          <mxGeometry x="240" y="40" width="40" height="40" as="geometry" />
        </mxCell>
        <mxCell id="98jdAXWO_OSkOp83e07M-18" value="3." style="rounded=0;whiteSpace=wrap;html=1;" vertex="1" parent="1">
          <mxGeometry x="280" y="40" width="40" height="40" as="geometry" />
        </mxCell>
        <mxCell id="98jdAXWO_OSkOp83e07M-19" value="4." style="rounded=0;whiteSpace=wrap;html=1;" vertex="1" parent="1">
          <mxGeometry x="320" y="40" width="40" height="40" as="geometry" />
        </mxCell>
        <mxCell id="98jdAXWO_OSkOp83e07M-20" value="5." style="rounded=0;whiteSpace=wrap;html=1;" vertex="1" parent="1">
          <mxGeometry x="360" y="40" width="40" height="40" as="geometry" />
        </mxCell>
        <mxCell id="98jdAXWO_OSkOp83e07M-21" value="6." style="rounded=0;whiteSpace=wrap;html=1;" vertex="1" parent="1">
          <mxGeometry x="400" y="40" width="40" height="40" as="geometry" />
        </mxCell>
        <mxCell id="98jdAXWO_OSkOp83e07M-22" value="7." style="rounded=0;whiteSpace=wrap;html=1;" vertex="1" parent="1">
          <mxGeometry x="440" y="40" width="40" height="40" as="geometry" />
        </mxCell>
        <mxCell id="98jdAXWO_OSkOp83e07M-23" value="8." style="rounded=0;whiteSpace=wrap;html=1;" vertex="1" parent="1">
          <mxGeometry x="480" y="40" width="40" height="40" as="geometry" />
        </mxCell>
        <mxCell id="98jdAXWO_OSkOp83e07M-24" value="9." style="rounded=0;whiteSpace=wrap;html=1;" vertex="1" parent="1">
          <mxGeometry x="520" y="40" width="40" height="40" as="geometry" />
        </mxCell>
        <mxCell id="98jdAXWO_OSkOp83e07M-25" value="10." style="rounded=0;whiteSpace=wrap;html=1;" vertex="1" parent="1">
          <mxGeometry x="560" y="40" width="40" height="40" as="geometry" />
        </mxCell>
        <mxCell id="98jdAXWO_OSkOp83e07M-26" value="11." style="rounded=0;whiteSpace=wrap;html=1;" vertex="1" parent="1">
          <mxGeometry x="600" y="40" width="40" height="40" as="geometry" />
        </mxCell>
        <mxCell id="98jdAXWO_OSkOp83e07M-27" value="12." style="rounded=0;whiteSpace=wrap;html=1;" vertex="1" parent="1">
          <mxGeometry x="640" y="40" width="40" height="40" as="geometry" />
        </mxCell>
        <mxCell id="98jdAXWO_OSkOp83e07M-28" value="13." style="rounded=0;whiteSpace=wrap;html=1;" vertex="1" parent="1">
          <mxGeometry x="680" y="40" width="40" height="40" as="geometry" />
        </mxCell>
        <mxCell id="98jdAXWO_OSkOp83e07M-29" value="14." style="rounded=0;whiteSpace=wrap;html=1;" vertex="1" parent="1">
          <mxGeometry x="720" y="40" width="40" height="40" as="geometry" />
        </mxCell>
        <mxCell id="98jdAXWO_OSkOp83e07M-30" value="15." style="rounded=0;whiteSpace=wrap;html=1;" vertex="1" parent="1">
          <mxGeometry x="760" y="40" width="40" height="40" as="geometry" />
        </mxCell>
        <mxCell id="98jdAXWO_OSkOp83e07M-34" value="Planowanie" style="rounded=0;whiteSpace=wrap;html=1;" vertex="1" parent="1">
          <mxGeometry y="80" width="80" height="80" as="geometry" />
        </mxCell>
        <mxCell id="98jdAXWO_OSkOp83e07M-35" value="Ustalenie wymagań klienta" style="rounded=0;whiteSpace=wrap;html=1;" vertex="1" parent="1">
          <mxGeometry x="80" y="80" width="120" height="40" as="geometry" />
        </mxCell>
        <mxCell id="98jdAXWO_OSkOp83e07M-36" value="Przygotowanie wstępnej wersji dokumentacji" style="rounded=0;whiteSpace=wrap;html=1;" vertex="1" parent="1">
          <mxGeometry x="80" y="120" width="120" height="40" as="geometry" />
        </mxCell>
        <mxCell id="98jdAXWO_OSkOp83e07M-37" value="Projektowanie" style="rounded=0;whiteSpace=wrap;html=1;" vertex="1" parent="1">
          <mxGeometry y="160" width="80" height="80" as="geometry" />
        </mxCell>
        <mxCell id="98jdAXWO_OSkOp83e07M-38" value="Wybór architektury&lt;br&gt;&amp;nbsp;i technologii" style="rounded=0;whiteSpace=wrap;html=1;" vertex="1" parent="1">
          <mxGeometry x="80" y="160" width="120" height="40" as="geometry" />
        </mxCell>
        <mxCell id="98jdAXWO_OSkOp83e07M-39" value="Zaprojektowanie klas, modułów i interfejsów" style="whiteSpace=wrap;html=1;" vertex="1" parent="1">
          <mxGeometry x="80" y="200" width="120" height="40" as="geometry" />
        </mxCell>
        <mxCell id="98jdAXWO_OSkOp83e07M-40" value="Implementacja" style="rounded=0;whiteSpace=wrap;html=1;" vertex="1" parent="1">
          <mxGeometry y="240" width="80" height="160" as="geometry" />
        </mxCell>
        <mxCell id="98jdAXWO_OSkOp83e07M-41" value="Implementacja serwer" style="rounded=0;whiteSpace=wrap;html=1;" vertex="1" parent="1">
          <mxGeometry x="80" y="320" width="120" height="40" as="geometry" />
        </mxCell>
        <mxCell id="98jdAXWO_OSkOp83e07M-42" value="Implementacja serwisu aktualizującego bazę danych" style="rounded=0;whiteSpace=wrap;html=1;" vertex="1" parent="1">
          <mxGeometry x="80" y="240" width="120" height="80" as="geometry" />
        </mxCell>
        <mxCell id="98jdAXWO_OSkOp83e07M-44" value="Implementacja aplikacji mobilnej" style="rounded=0;whiteSpace=wrap;html=1;" vertex="1" parent="1">
          <mxGeometry x="80" y="360" width="120" height="40" as="geometry" />
        </mxCell>
        <mxCell id="98jdAXWO_OSkOp83e07M-45" value="Tydzień" style="rounded=0;whiteSpace=wrap;html=1;" vertex="1" parent="1">
          <mxGeometry x="200" width="600" height="40" as="geometry" />
        </mxCell>
        <mxCell id="98jdAXWO_OSkOp83e07M-46" value="Wdrożenie" style="rounded=0;whiteSpace=wrap;html=1;" vertex="1" parent="1">
          <mxGeometry y="400" width="80" height="160" as="geometry" />
        </mxCell>
        <mxCell id="98jdAXWO_OSkOp83e07M-47" value="Przygotowanie testów" style="rounded=0;whiteSpace=wrap;html=1;" vertex="1" parent="1">
          <mxGeometry x="80" y="400" width="120" height="40" as="geometry" />
        </mxCell>
        <mxCell id="98jdAXWO_OSkOp83e07M-48" value="Napisanie instrukcji" style="rounded=0;whiteSpace=wrap;html=1;" vertex="1" parent="1">
          <mxGeometry x="80" y="440" width="120" height="40" as="geometry" />
        </mxCell>
        <mxCell id="98jdAXWO_OSkOp83e07M-49" value="Wdrożenie aplikacji i na Azure" style="rounded=0;whiteSpace=wrap;html=1;" vertex="1" parent="1">
          <mxGeometry x="80" y="480" width="120" height="40" as="geometry" />
        </mxCell>
        <mxCell id="98jdAXWO_OSkOp83e07M-50" value="Napisanie dokumentacji powdrożeniowej" style="rounded=0;whiteSpace=wrap;html=1;" vertex="1" parent="1">
          <mxGeometry x="80" y="520" width="120" height="40" as="geometry" />
        </mxCell>
        <mxCell id="98jdAXWO_OSkOp83e07M-51" value="Praca dyplomowa" style="rounded=0;whiteSpace=wrap;html=1;" vertex="1" parent="1">
          <mxGeometry y="560" width="200" height="40" as="geometry" />
        </mxCell>
        <mxCell id="98jdAXWO_OSkOp83e07M-52" value="" style="rounded=0;whiteSpace=wrap;html=1;fillColor=#dae8fc;strokeColor=#6c8ebf;" vertex="1" parent="1">
          <mxGeometry x="200" y="80" width="40" height="40" as="geometry" />
        </mxCell>
        <mxCell id="98jdAXWO_OSkOp83e07M-53" value="" style="rounded=0;whiteSpace=wrap;html=1;fillColor=#dae8fc;strokeColor=#6c8ebf;" vertex="1" parent="1">
          <mxGeometry x="240" y="120" width="80" height="40" as="geometry" />
        </mxCell>
        <mxCell id="98jdAXWO_OSkOp83e07M-54" value="" style="rounded=0;whiteSpace=wrap;html=1;fillColor=#d5e8d4;strokeColor=#82b366;" vertex="1" parent="1">
          <mxGeometry x="320" y="160" width="40" height="40" as="geometry" />
        </mxCell>
        <mxCell id="98jdAXWO_OSkOp83e07M-55" value="" style="rounded=0;whiteSpace=wrap;html=1;fillColor=#d5e8d4;strokeColor=#82b366;" vertex="1" parent="1">
          <mxGeometry x="320" y="200" width="80" height="40" as="geometry" />
        </mxCell>
        <mxCell id="98jdAXWO_OSkOp83e07M-56" value="" style="rounded=0;whiteSpace=wrap;html=1;fillColor=#ffe6cc;strokeColor=#d79b00;" vertex="1" parent="1">
          <mxGeometry x="440" y="320" width="120" height="40" as="geometry" />
        </mxCell>
        <mxCell id="98jdAXWO_OSkOp83e07M-57" value="" style="rounded=0;whiteSpace=wrap;html=1;fillColor=#ffe6cc;strokeColor=#d79b00;" vertex="1" parent="1">
          <mxGeometry x="400" y="240" width="40" height="80" as="geometry" />
        </mxCell>
        <mxCell id="98jdAXWO_OSkOp83e07M-59" value="" style="rounded=0;whiteSpace=wrap;html=1;fillColor=#ffe6cc;strokeColor=#d79b00;" vertex="1" parent="1">
          <mxGeometry x="400" y="360" width="160" height="40" as="geometry" />
        </mxCell>
        <mxCell id="98jdAXWO_OSkOp83e07M-60" value="" style="rounded=0;whiteSpace=wrap;html=1;fillColor=#e1d5e7;strokeColor=#9673a6;" vertex="1" parent="1">
          <mxGeometry x="560" y="400" width="40" height="40" as="geometry" />
        </mxCell>
        <mxCell id="98jdAXWO_OSkOp83e07M-61" value="" style="rounded=0;whiteSpace=wrap;html=1;fillColor=#e1d5e7;strokeColor=#9673a6;" vertex="1" parent="1">
          <mxGeometry x="560" y="440" width="40" height="40" as="geometry" />
        </mxCell>
        <mxCell id="98jdAXWO_OSkOp83e07M-62" value="" style="rounded=0;whiteSpace=wrap;html=1;fillColor=#e1d5e7;strokeColor=#9673a6;" vertex="1" parent="1">
          <mxGeometry x="600" y="480" width="40" height="40" as="geometry" />
        </mxCell>
        <mxCell id="98jdAXWO_OSkOp83e07M-63" value="" style="rounded=0;whiteSpace=wrap;html=1;fillColor=#e1d5e7;strokeColor=#9673a6;" vertex="1" parent="1">
          <mxGeometry x="600" y="520" width="80" height="40" as="geometry" />
        </mxCell>
        <mxCell id="98jdAXWO_OSkOp83e07M-64" value="" style="rounded=0;whiteSpace=wrap;html=1;fillColor=#f5f5f5;fontColor=#333333;strokeColor=#666666;" vertex="1" parent="1">
          <mxGeometry x="600" y="560" width="200" height="40" as="geometry" />
        </mxCell>
      </root>
    </mxGraphModel>
  </diagram>
</mxfile>
